# xmcd
#
# Track frame offsets:
# 150
# 1733
# 6565
# 27594
# 31690
# 40110
# 53229
# 69621
# 88253
# 100555
# 116431
# 145677
# 160126
# 177909
# 195102
# 211700
# 229163
# 239801
# 243091
# 250622
# 255240
# 259634
# 261896
#
# Disc length: 3619 seconds
#
# Revision: 0
# Processed by: cddbd v1.4PL0 Copyright (c) Steve Scherf et al.
# Submitted via: Audion 3.0.2 (http://www.panic.com/audion/)
#
DISCID=210e2117
DTITLE=Y.A.C.H.T. - Super Karen XXXIV
DYEAR=1900
DGENRE=
TTITLE0=Intro: Hello
TTITLE1=From the Sky, Down
TTITLE2=Remember What This Feels Like
TTITLE3=Do You Remember the Summer?
TTITLE4=I Needed a Change
TTITLE5=The Denver Nuggets
TTITLE6=I Asked If We Could Have Sex One Last Time
TTITLE7=This Will Be Better
TTITLE8=Doctor Tunde Babs
TTITLE9=SHTML
TTITLE10=Glowing Rock, Melting Bones
TTITLE11=I Will Be Happy
TTITLE12=We Watched Manhunter Together
TTITLE13=Lulling You
TTITLE14=Popular Electronic Music From the 90s
TTITLE15=Alexis J. Curotto
TTITLE16=Do Tell
TTITLE17=Working Hard/Hardly Working
TTITLE18=Positive Exploding Rainbow
TTITLE19=I Will Bend Backwards
TTITLE20=The Cleveland Shuffle
TTITLE21=Jonathan Bechtolt
TTITLE22=Outro:  Good Bye
EXTD=
EXTT0=
EXTT1=
EXTT2=
EXTT3=
EXTT4=
EXTT5=
EXTT6=
EXTT7=
EXTT8=
EXTT9=
EXTT10=
EXTT11=
EXTT12=
EXTT13=
EXTT14=
EXTT15=
EXTT16=
EXTT17=
EXTT18=
EXTT19=
EXTT20=
EXTT21=
EXTT22=
PLAYORDER=
